
      <svg data-logo="logo" xmlns="http://www.w3.org/2000/svg" viewBox="0 0 253 43">
        <g id="logogram" transform="translate(0, 1) rotate(0)"><path d="M13.0832 0.429993L23.4173 9.25886C24.0309 9.78301 24.3845 10.5522 24.3845 11.3623V18.0162L14.0503 9.18733C13.4368 8.66319 13.0832 7.894 13.0832 7.08386V0.429993Z" fill="#7B19D8"/><path d="M13.0832 40.43L23.4173 31.6011C24.0309 31.077 24.3845 30.3078 24.3845 29.4977V22.8438L14.0503 31.6727C13.4368 32.1968 13.0832 32.966 13.0832 33.7761V40.43Z" fill="#7B19D8"/><path d="M0.754395 9.74034L10.948 18.4005C11.4422 18.8204 12.0681 19.0507 12.7147 19.0507H20.9354L10.7669 10.3925C10.2723 9.9714 9.64557 9.74034 8.99786 9.74034H0.754395Z" fill="#7B19D8"/><path d="M0.754395 31.1196L10.8853 22.4645C11.3804 22.0415 12.0086 21.8093 12.6578 21.8093H20.9599L10.7663 30.4694C10.2721 30.8893 9.64625 31.1196 8.99957 31.1196H0.754395Z" fill="#7B19D8"/><path d="M38.4256 0.429993L28.0914 9.25886C27.4779 9.78301 27.1243 10.5522 27.1243 11.3623V18.0162L37.4584 9.18733C38.072 8.66319 38.4256 7.894 38.4256 7.08386V0.429993Z" fill="#7B19D8"/><path d="M38.4256 40.43L28.0914 31.6011C27.4779 31.077 27.1243 30.3078 27.1243 29.4977V22.8438L37.4584 31.6727C38.072 32.1968 38.4256 32.966 38.4256 33.7761V40.43Z" fill="#7B19D8"/><path d="M50.7544 9.74034L40.5608 18.4005C40.0666 18.8204 39.4407 19.0507 38.7941 19.0507H30.5733L40.7419 10.3925C41.2364 9.9714 41.8632 9.74034 42.5109 9.74034H50.7544Z" fill="#7B19D8"/><path d="M50.7544 31.1196L40.6235 22.4645C40.1284 22.0415 39.5002 21.8093 38.851 21.8093H30.5489L40.7425 30.4694C41.2367 30.8893 41.8625 31.1196 42.5092 31.1196H50.7544Z" fill="#7B19D8"/></g>
        <g id="logotype" transform="translate(57, 1)"><path fill="#1a1919" d="M16.96 34.42L16.96 34.42Q14.02 34.42 11.32 33.63Q8.63 32.84 6.98 31.59L6.98 31.59L8.91 27.31Q10.48 28.43 12.63 29.15Q14.79 29.87 16.99 29.87L16.99 29.87Q18.67 29.87 19.70 29.54Q20.73 29.20 21.23 28.61Q21.72 28.02 21.72 27.24L21.72 27.24Q21.72 26.27 20.95 25.69Q20.18 25.11 18.91 24.74Q17.66 24.38 16.13 24.04Q14.61 23.71 13.09 23.22Q11.57 22.73 10.30 21.96Q9.04 21.19 8.26 19.93Q7.47 18.67 7.47 16.71L7.47 16.71Q7.47 14.61 8.61 12.88Q9.75 11.14 12.04 10.11Q14.33 9.08 17.80 9.08L17.80 9.08Q20.11 9.08 22.35 9.62Q24.59 10.16 26.30 11.25L26.30 11.25L24.55 15.55Q22.84 14.57 21.12 14.10Q19.41 13.63 17.76 13.63L17.76 13.63Q16.12 13.63 15.07 14.01Q14.02 14.40 13.56 15.01Q13.11 15.63 13.11 16.43L13.11 16.43Q13.11 17.38 13.88 17.95Q14.65 18.53 15.91 18.88Q17.16 19.23 18.69 19.58Q20.21 19.93 21.73 20.38Q23.26 20.84 24.52 21.61Q25.78 22.38 26.56 23.64Q27.35 24.90 27.35 26.82L27.35 26.82Q27.35 28.89 26.20 30.61Q25.04 32.32 22.75 33.37Q20.46 34.42 16.96 34.42ZM39.04 34.28L39.04 34.28Q36.03 34.28 33.70 33.02Q31.38 31.76 30.03 29.57Q28.68 27.38 28.68 24.59L28.68 24.59Q28.68 21.75 30.03 19.56Q31.38 17.38 33.70 16.13Q36.03 14.89 39.04 14.89L39.04 14.89Q42.02 14.89 44.36 16.13Q46.71 17.38 48.04 19.54Q49.37 21.71 49.37 24.59L49.37 24.59Q49.37 27.38 48.04 29.57Q46.71 31.76 44.36 33.02Q42.02 34.28 39.04 34.28ZM39.04 29.80L39.04 29.80Q40.41 29.80 41.49 29.17Q42.58 28.54 43.21 27.37Q43.84 26.20 43.84 24.59L43.84 24.59Q43.84 22.94 43.21 21.78Q42.58 20.63 41.49 20Q40.41 19.37 39.04 19.37L39.04 19.37Q37.68 19.37 36.59 20Q35.51 20.63 34.86 21.78Q34.21 22.94 34.21 24.59L34.21 24.59Q34.21 26.20 34.86 27.37Q35.51 28.54 36.59 29.17Q37.68 29.80 39.04 29.80ZM60.18 34.28L60.18 34.28Q57.83 34.28 56.00 33.37Q54.16 32.46 53.14 30.59Q52.13 28.71 52.13 25.81L52.13 25.81L52.13 15.17L57.59 15.17L57.59 25.00Q57.59 27.35 58.59 28.45Q59.58 29.55 61.41 29.55L61.41 29.55Q62.66 29.55 63.64 29.01Q64.63 28.47 65.19 27.33Q65.75 26.20 65.75 24.48L65.75 24.48L65.75 15.17L71.20 15.17L71.20 34L66.03 34L66.03 28.82L66.97 30.32Q66.03 32.28 64.19 33.28Q62.35 34.28 60.18 34.28ZM80.97 34L75.51 34L75.51 8.03L80.97 8.03L80.97 34ZM102.84 34.42L102.84 34.42Q99.91 34.42 97.21 33.63Q94.52 32.84 92.87 31.59L92.87 31.59L94.80 27.31Q96.37 28.43 98.52 29.15Q100.67 29.87 102.88 29.87L102.88 29.87Q104.56 29.87 105.59 29.54Q106.63 29.20 107.12 28.61Q107.61 28.02 107.61 27.24L107.61 27.24Q107.61 26.27 106.84 25.69Q106.06 25.11 104.81 24.74Q103.55 24.38 102.02 24.04Q100.50 23.71 98.98 23.22Q97.45 22.73 96.20 21.96Q94.94 21.19 94.15 19.93Q93.36 18.67 93.36 16.71L93.36 16.71Q93.36 14.61 94.50 12.88Q95.64 11.14 97.93 10.11Q100.22 9.08 103.69 9.08L103.69 9.08Q106.00 9.08 108.23 9.62Q110.47 10.16 112.19 11.25L112.19 11.25L110.44 15.55Q108.72 14.57 107.01 14.10Q105.30 13.63 103.65 13.63L103.65 13.63Q102.00 13.63 100.95 14.01Q99.91 14.40 99.45 15.01Q99.00 15.63 99.00 16.43L99.00 16.43Q99.00 17.38 99.77 17.95Q100.53 18.53 101.80 18.88Q103.06 19.23 104.58 19.58Q106.10 19.93 107.62 20.38Q109.15 20.84 110.41 21.61Q111.67 22.38 112.45 23.64Q113.24 24.90 113.24 26.82L113.24 26.82Q113.24 28.89 112.09 30.61Q110.93 32.32 108.64 33.37Q106.34 34.42 102.84 34.42ZM125.07 34.28L125.07 34.28Q122.03 34.28 119.65 33.04Q117.27 31.80 115.92 29.59Q114.57 27.38 114.57 24.59L114.57 24.59Q114.57 21.75 115.92 19.56Q117.27 17.38 119.65 16.13Q122.03 14.89 125.07 14.89L125.07 14.89Q128.05 14.89 130.25 16.13Q132.46 17.38 133.50 19.68L133.50 19.68L129.27 21.96Q128.53 20.63 127.43 20Q126.33 19.37 125.03 19.37L125.03 19.37Q123.64 19.37 122.52 20Q121.40 20.63 120.75 21.78Q120.10 22.94 120.10 24.59L120.10 24.59Q120.10 26.23 120.75 27.38Q121.40 28.54 122.52 29.17Q123.64 29.80 125.03 29.80L125.03 29.80Q126.33 29.80 127.43 29.19Q128.53 28.57 129.27 27.21L129.27 27.21L133.50 29.52Q132.46 31.80 130.25 33.04Q128.05 34.28 125.07 34.28ZM141.34 34L135.88 34L135.88 15.17L141.10 15.17L141.10 20.49L140.36 18.95Q141.20 16.95 143.06 15.92Q144.91 14.89 147.57 14.89L147.57 14.89L147.57 19.93Q147.22 19.89 146.94 19.88Q146.66 19.86 146.35 19.86L146.35 19.86Q144.11 19.86 142.73 21.14Q141.34 22.41 141.34 25.11L141.34 25.11L141.34 34ZM155.66 34L150.20 34L150.20 15.17L155.66 15.17L155.66 34ZM152.93 12.54L152.93 12.54Q151.42 12.54 150.48 11.67Q149.53 10.79 149.53 9.50L149.53 9.50Q149.53 8.20 150.48 7.33Q151.42 6.45 152.93 6.45L152.93 6.45Q154.43 6.45 155.38 7.28Q156.32 8.10 156.32 9.39L156.32 9.39Q156.32 10.76 155.40 11.65Q154.47 12.54 152.93 12.54ZM171.09 34.28L171.09 34.28Q168.71 34.28 166.93 33.23Q165.14 32.18 164.15 30.03Q163.15 27.88 163.15 24.59L163.15 24.59Q163.15 21.26 164.09 19.13Q165.04 16.99 166.82 15.94Q168.61 14.89 171.09 14.89L171.09 14.89Q173.75 14.89 175.87 16.10Q177.99 17.30 179.23 19.47Q180.47 21.64 180.47 24.59L180.47 24.59Q180.47 27.56 179.23 29.73Q177.99 31.90 175.87 33.09Q173.75 34.28 171.09 34.28ZM165.42 40.79L159.96 40.79L159.96 15.17L165.18 15.17L165.18 19.02L165.07 24.62L165.42 30.18L165.42 40.79ZM170.15 29.80L170.15 29.80Q171.51 29.80 172.58 29.17Q173.65 28.54 174.30 27.37Q174.94 26.20 174.94 24.59L174.94 24.59Q174.94 22.94 174.30 21.78Q173.65 20.63 172.58 20Q171.51 19.37 170.15 19.37L170.15 19.37Q168.78 19.37 167.70 20Q166.61 20.63 165.98 21.78Q165.35 22.94 165.35 24.59L165.35 24.59Q165.35 26.20 165.98 27.37Q166.61 28.54 167.70 29.17Q168.78 29.80 170.15 29.80ZM191.04 34.28L191.04 34.28Q187.72 34.28 185.86 32.58Q184.01 30.88 184.01 27.52L184.01 27.52L184.01 11.00L189.47 11.00L189.47 27.45Q189.47 28.64 190.10 29.29Q190.73 29.94 191.81 29.94L191.81 29.94Q193.11 29.94 194.02 29.24L194.02 29.24L195.49 33.09Q194.65 33.69 193.48 33.98Q192.30 34.28 191.04 34.28ZM194.16 19.37L181.10 19.37L181.10 15.17L194.16 15.17L194.16 19.37Z"/></g>
        
      </svg>
    